<svg width="48" height="48" viewBox="0 0 48 48" fill="none" xmlns="http://www.w3.org/2000/svg">
<circle cx="24" cy="19" r="4.25" stroke="black" stroke-width="1.5"/>
<mask id="path-4-inside-1" fill="white">
<path fill-rule="evenodd" clip-rule="evenodd" d="M19.2902 25.1786C18.4288 25.6384 17.6319 26.2259 16.9289 26.929C15.5322 28.3257 14.5913 30.0931 14.202 32C14.0686 32.6534 14 33.3232 14 34H16L32 34H34C34 33.3232 33.9314 32.6534 33.798 32C33.4087 30.0931 32.4678 28.3257 31.0711 26.929C30.3681 26.226 29.5712 25.6384 28.7098 25.1786C28.1097 25.7244 27.4239 26.1576 26.6857 26.4643C27.7927 26.8589 28.81 27.4963 29.6569 28.3432C30.6759 29.3623 31.3917 30.628 31.746 32L16.254 32C16.6083 30.628 17.3241 29.3623 18.3431 28.3432C19.19 27.4963 20.2073 26.8589 21.3143 26.4643C20.5761 26.1576 19.8903 25.7244 19.2902 25.1786Z"/>
</mask>
<path fill-rule="evenodd" clip-rule="evenodd" d="M19.2902 25.1786C18.4288 25.6384 17.6319 26.2259 16.9289 26.929C15.5322 28.3257 14.5913 30.0931 14.202 32C14.0686 32.6534 14 33.3232 14 34H16L32 34H34C34 33.3232 33.9314 32.6534 33.798 32C33.4087 30.0931 32.4678 28.3257 31.0711 26.929C30.3681 26.226 29.5712 25.6384 28.7098 25.1786C28.1097 25.7244 27.4239 26.1576 26.6857 26.4643C27.7927 26.8589 28.81 27.4963 29.6569 28.3432C30.6759 29.3623 31.3917 30.628 31.746 32L16.254 32C16.6083 30.628 17.3241 29.3623 18.3431 28.3432C19.19 27.4963 20.2073 26.8589 21.3143 26.4643C20.5761 26.1576 19.8903 25.7244 19.2902 25.1786Z" fill="black"/>
<path d="M19.2902 25.1786L20.6359 23.6991L19.5925 22.75L18.3483 23.4143L19.2902 25.1786ZM16.9289 26.929L18.3431 28.3432L16.9289 26.929ZM14.202 32L16.1616 32.4001L14.202 32ZM14 34H12V36H14V34ZM16 34L16 32H16V34ZM32 34L32 36H32V34ZM34 34V36H36V34H34ZM33.798 32L35.7576 31.6L35.7576 31.6L33.798 32ZM31.0711 26.929L29.6569 28.3432L29.6569 28.3432L31.0711 26.929ZM28.7098 25.1786L29.6518 23.4143L28.4075 22.75L27.3641 23.6991L28.7098 25.1786ZM26.6857 26.4643L25.9184 24.6174L21.1292 26.6071L26.0142 28.3482L26.6857 26.4643ZM29.6569 28.3432L31.0711 26.929L31.0711 26.929L29.6569 28.3432ZM31.746 32L31.746 34L34.3281 34L33.6825 31.5L31.746 32ZM16.254 32L14.3175 31.5L13.6719 34L16.254 34L16.254 32ZM18.3431 28.3432L16.9289 26.929L16.9289 26.929L18.3431 28.3432ZM21.3143 26.4643L21.9858 28.3482L26.8708 26.6071L22.0816 24.6174L21.3143 26.4643ZM18.3483 23.4143C17.3146 23.9661 16.3583 24.6712 15.5147 25.5147L18.3431 28.3432C18.9056 27.7807 19.5431 27.3108 20.2321 26.9429L18.3483 23.4143ZM15.5147 25.5147C13.8385 27.1909 12.7095 29.3118 12.2424 31.6L16.1616 32.4001C16.473 30.8744 17.2258 29.4605 18.3431 28.3432L15.5147 25.5147ZM12.2424 31.6C12.0823 32.3842 12 33.1879 12 34H16C16 33.4584 16.0549 32.9227 16.1616 32.4001L12.2424 31.6ZM14 36H16V32H14V36ZM16 36L32 36L32 32L16 32L16 36ZM32 36H34V32H32V36ZM36 34C36 33.1879 35.9177 32.3842 35.7576 31.6L31.8384 32.4001C31.9451 32.9227 32 33.4584 32 34H36ZM35.7576 31.6C35.2905 29.3118 34.1615 27.1909 32.4853 25.5147L29.6569 28.3432C30.7742 29.4605 31.527 30.8744 31.8384 32.4001L35.7576 31.6ZM32.4853 25.5147C31.6417 24.6712 30.6854 23.9661 29.6518 23.4143L27.7679 26.9429C28.4569 27.3108 29.0944 27.7807 29.6569 28.3432L32.4853 25.5147ZM27.453 28.3112C28.4021 27.9169 29.2839 27.36 30.0556 26.6581L27.3641 23.6991C26.9355 24.0889 26.4458 24.3982 25.9184 24.6174L27.453 28.3112ZM31.0711 26.929C30.0124 25.8703 28.7408 25.0735 27.3572 24.5804L26.0142 28.3482C26.8447 28.6442 27.6075 29.1222 28.2426 29.7574L31.0711 26.929ZM33.6825 31.5C33.2396 29.7851 32.345 28.2029 31.0711 26.929L28.2426 29.7574C29.0069 30.5216 29.5437 31.4709 29.8095 32.5001L33.6825 31.5ZM16.254 34L31.746 34L31.746 30L16.254 30L16.254 34ZM16.9289 26.929C15.655 28.2029 14.7604 29.7851 14.3175 31.5L18.1905 32.5001C18.4563 31.4709 18.9931 30.5216 19.7574 29.7574L16.9289 26.929ZM20.6428 24.5804C19.2592 25.0735 17.9876 25.8703 16.9289 26.929L19.7574 29.7574C20.3925 29.1222 21.1553 28.6442 21.9858 28.3482L20.6428 24.5804ZM17.9444 26.6581C18.7161 27.36 19.5979 27.9169 20.547 28.3112L22.0816 24.6174C21.5542 24.3982 21.0645 24.0889 20.6359 23.6991L17.9444 26.6581Z" fill="black" mask="url(#path-4-inside-1)"/>
</svg>
