<svg width="48" height="48" viewBox="0 0 48 48" fill="none" xmlns="http://www.w3.org/2000/svg">
<path d="M18.5279 28.7023C19.6475 30.2433 21.2802 31.3343 23.1324 31.779C24.9846 32.2236 26.9347 31.9928 28.6319 31.1281C30.3291 30.2633 31.6621 28.8213 32.391 27.0615C33.12 25.3016 33.1971 23.3395 32.6085 21.5279C32.0198 19.7163 30.8041 18.1741 29.18 17.1789C27.5559 16.1836 25.6299 15.8005 23.7485 16.0985C21.8672 16.3965 20.1538 17.356 18.9168 18.8044C17.6797 20.2529 17 22.0952 17 24" stroke="black" stroke-width="2"/>
<path d="M25 18V24L28 27" stroke="black"/>
<path d="M19 24H15L17 27L19 24Z" stroke="black"/>
</svg>
